<?xml version="1.0" encoding="utf-8"?>
<svg width="972.48114px" height="976.8399px" viewBox="0 0 972.48114 976.8399" version="1.1" xmlns:xlink="http://www.w3.org/1999/xlink" xmlns="http://www.w3.org/2000/svg">
  <path d="M70.6144 0.958862C66.7478 1.62549 59.9478 3.62549 55.5478 5.35883C29.4144 15.8922 11.4144 36.0255 2.8811 64.1588C0.614437 71.7588 0.481104 91.3588 0.0811033 484.826C-0.185563 763.359 0.214437 900.159 1.14777 905.492C4.34777 925.092 12.2144 939.759 27.2811 954.559C36.0811 963.359 53.9478 972.826 66.2144 975.359C71.1478 976.426 194.481 976.826 485.548 976.826C518.566 976.826 549.004 976.83 577.07 976.834C893.052 976.877 908.415 976.879 920.351 970.485C922.108 969.544 923.791 968.464 926.348 967.226C946.481 957.492 963.414 936.559 970.081 912.826C972.348 904.559 972.481 887.226 972.481 488.826C972.481 90.2922 972.348 73.0922 970.081 64.8255C961.148 33.0921 940.614 11.8922 909.814 2.6922C902.214 0.292175 883.414 0.158813 489.814 0.0255127C250.881 -0.107849 74.7478 0.292175 70.6144 0.958862ZM888.748 79.7589C891.681 81.6255 895.148 85.4922 896.615 88.4255C899.148 93.3589 899.148 102.959 899.548 483.492C899.815 752.159 899.415 875.492 898.481 880.026C896.748 888.426 891.681 895.092 884.615 898.292C879.281 900.692 867.015 900.826 485.148 900.826C112.614 900.826 90.8811 900.692 86.6144 898.426C84.0811 897.226 80.2144 893.892 77.9478 891.092L73.8144 885.892L73.4144 491.759C73.2811 274.826 73.4144 95.6255 73.8144 93.3589C74.8811 87.6255 82.0811 79.7589 88.4811 77.4922C93.0144 75.8922 152.081 75.6255 488.614 75.8922L883.281 76.1588L888.748 79.7589ZM212.614 766.292C211.414 702.826 208.081 573.492 207.014 546.426L206.081 524.826L618.481 524.826L618.481 528.426C618.481 532.292 617.681 561.092 613.148 710.826C611.681 759.226 610.481 802.292 610.481 806.426L610.481 814.159L596.614 814.159C583.014 814.159 582.748 814.159 581.948 817.492C581.548 819.226 579.281 822.826 577.014 825.359C567.148 836.692 548.748 834.426 543.414 821.092L541.281 815.892L502.214 815.092C480.748 814.559 422.881 814.159 373.548 814.159L284.081 814.159L282.614 818.559C281.014 823.226 275.948 828.692 270.881 831.359C262.881 835.492 251.548 831.359 245.548 822.159C240.214 813.892 239.948 813.759 233.014 814.692C229.414 815.226 223.548 815.226 220.081 814.692L213.548 813.892L212.614 766.292ZM270.481 772.826L270.481 542.159L257.148 542.159L256.881 589.092C256.348 680.292 256.348 720.426 256.881 746.426L257.548 772.826L270.481 772.826ZM343.814 772.826L343.814 542.159L330.481 542.159L330.481 772.826L343.814 772.826ZM418.481 772.826L418.481 542.159L405.148 542.159L405.148 772.826L418.481 772.826ZM493.148 772.826L493.148 542.159L486.614 542.159C482.881 542.159 479.814 542.559 479.548 543.092C479.281 543.759 479.281 595.626 479.548 658.426L479.814 772.826L493.148 772.826ZM567.814 772.826L567.814 542.159L554.481 542.159L554.481 772.826L567.814 772.826ZM230.214 430.026C236.614 425.492 252.081 414.559 264.481 405.492C277.014 396.292 287.548 388.959 287.948 388.826C288.481 388.826 294.081 396.159 300.481 404.959L312.214 421.226L309.014 423.626C307.281 424.959 289.814 437.626 270.081 451.759C250.481 465.892 216.081 490.826 193.681 507.092C171.281 523.492 152.348 536.826 151.814 536.826C149.681 536.826 126.214 507.492 126.881 505.626C127.281 504.692 133.948 499.226 141.548 493.492L155.681 483.092L148.881 475.626C140.081 466.026 138.881 463.226 141.414 459.226C143.281 456.426 188.081 423.626 195.414 419.759C199.948 417.226 204.348 419.759 211.814 429.359L218.614 438.026L230.214 430.026ZM240.348 491.626C232.614 497.092 217.681 508.159 215.148 510.426C215.145 510.427 215.144 510.429 215.144 510.431C215.144 510.963 311.022 511.492 428.881 511.492L643.814 511.492L643.814 486.159L248.214 486.159L240.348 491.626ZM203.814 447.092C203.814 446.426 202.614 444.159 201.014 442.026C199.548 439.892 197.548 438.159 196.748 438.159C195.814 438.292 189.414 442.426 182.481 447.626C175.548 452.692 167.814 458.292 165.548 459.892C160.214 463.492 160.081 464.692 165.014 469.359L169.014 473.092L186.348 460.692C195.948 453.759 203.814 447.626 203.814 447.092ZM568.481 156.292C553.814 158.692 520.214 164.159 493.814 168.292C434.881 177.359 435.014 177.359 426.348 182.559C412.214 190.959 407.014 204.159 411.014 221.359C412.214 226.292 413.148 231.759 413.148 233.359C413.148 236.292 389.948 298.959 358.481 381.492C347.948 409.226 346.348 414.292 346.881 419.759C348.748 440.559 377.681 447.092 388.214 429.092C389.681 426.692 395.681 412.959 401.814 398.426C407.814 384.026 413.814 370.026 414.881 367.492C416.081 364.959 423.014 348.692 430.348 331.492C444.614 297.626 449.148 287.492 449.548 287.492C451.814 287.492 583.681 264.826 605.548 260.692C614.081 259.092 621.414 258.026 621.681 258.292C621.948 258.559 631.281 273.226 642.481 290.826C653.548 308.426 663.548 324.159 664.481 325.626L666.348 328.559L679.414 324.559C686.615 322.426 720.615 313.492 754.881 304.692C789.281 295.892 819.548 287.892 822.214 286.692C843.814 277.759 843.548 245.226 821.948 235.359C820.321 234.626 819.116 233.991 817.843 233.55C812.104 231.562 804.999 233.515 751.724 248.159C748.066 249.165 744.19 250.231 740.081 251.359C715.681 258.026 695.014 263.492 694.081 263.492C693.148 263.492 690.615 260.292 688.348 256.426C681.014 244.026 647.814 191.226 639.014 177.892C629.281 163.092 621.948 156.826 610.348 153.626C600.748 150.826 599.814 150.959 568.481 156.292ZM598.214 275.892C589.148 278.426 587.948 279.092 588.615 281.492C588.881 282.959 593.414 304.826 598.615 330.159C603.681 355.492 608.348 376.559 608.881 377.092C609.814 378.026 636.348 383.092 703.814 395.492C712.214 397.092 728.214 400.159 739.148 402.426C752.748 405.092 761.681 406.159 767.014 405.892C774.214 405.359 775.281 404.826 780.481 399.359C784.881 394.692 786.614 391.492 787.814 385.759C789.948 376.426 788.481 370.292 782.081 362.026C774.614 352.292 771.948 351.359 724.081 342.826C665.148 332.159 653.681 330.026 651.148 328.959C648.748 327.892 626.348 294.826 617.014 278.559C613.281 272.026 613.014 272.026 598.214 275.892ZM303.948 208.559C309.681 197.226 322.881 186.292 335.814 182.026C337.681 181.359 344.348 181.092 350.614 181.226C360.481 181.626 363.414 182.292 370.881 185.892C394.881 197.759 404.748 228.692 392.348 253.092C387.548 262.559 378.081 272.159 369.281 276.426C362.748 279.759 360.214 280.159 349.148 280.159C338.081 280.159 335.548 279.759 329.148 276.559C314.081 269.092 304.214 257.359 300.214 241.759C298.481 234.826 298.348 231.892 299.681 223.759C300.481 218.426 302.348 211.626 303.948 208.559Z" id="Group" fill="#000000" fill-rule="evenodd" stroke="none" />
</svg>