<?xml version="1.0" encoding="utf-8"?>
<svg width="32px" height="32px" viewBox="0 0 32 32" version="1.1" xmlns:xlink="http://www.w3.org/1999/xlink" xmlns="http://www.w3.org/2000/svg">
  <path d="M3.85693 28.8678C3.80298 25.8861 3.65308 19.8101 3.6051 18.5386L3.56311 17.5238L22.1132 17.5238L22.1132 17.6929C22.1132 17.8745 22.0771 19.2275 21.8733 26.262C21.8073 28.5359 21.7533 30.5591 21.7533 30.7533L21.7533 31.1166L21.1295 31.1166C20.5178 31.1166 20.5059 31.1166 20.4698 31.2732C20.4519 31.3546 20.3499 31.5238 20.2479 31.6428C19.8041 32.1752 18.9764 32.0687 18.7366 31.4423L18.6406 31.198L16.8834 31.1604C15.9178 31.1354 13.3149 31.1166 11.0958 31.1166L7.07166 31.1166L7.00562 31.3232C6.93372 31.5425 6.70581 31.7993 6.47791 31.9247C6.11804 32.1188 5.60828 31.9247 5.33838 31.4924C5.09839 31.104 5.08643 31.0978 4.77454 31.1416C4.61267 31.1667 4.34875 31.1667 4.19287 31.1416L3.89893 31.104L3.85693 28.8678ZM6.45996 29.1747L6.45996 18.338L5.86023 18.338L5.84814 20.543C5.82422 24.8275 5.82422 26.7129 5.84814 27.9344L5.87817 29.1747L6.45996 29.1747ZM9.75854 29.1747L9.75854 18.338L9.15881 18.338L9.15881 29.1747L9.75854 29.1747ZM13.1171 29.1747L13.1171 18.338L12.5173 18.338L12.5173 29.1747L13.1171 29.1747ZM16.4755 29.1747L16.4755 18.338L16.1816 18.338C16.0137 18.338 15.8757 18.3568 15.8638 18.3818C15.8517 18.4132 15.8517 20.8499 15.8638 23.8002L15.8757 29.1747L16.4755 29.1747ZM19.8342 29.1747L19.8342 18.338L19.2345 18.338L19.2345 29.1747L19.8342 29.1747ZM4.64868 13.0701C4.93652 12.8571 5.6322 12.3435 6.18994 11.9175C6.75366 11.4852 7.22754 11.1407 7.24548 11.1345C7.26953 11.1345 7.52136 11.479 7.80933 11.8925L8.33704 12.6566L8.19312 12.7694C8.11511 12.832 7.32947 13.4271 6.44189 14.0911C5.56018 14.7551 4.01294 15.9265 3.00537 16.6907C1.9978 17.4612 1.14612 18.0875 1.12219 18.0875C1.02625 18.0875 -0.0294189 16.7095 0.000610352 16.6217C0.0186768 16.5779 0.318481 16.321 0.6604 16.0518L1.29602 15.5631L0.990234 15.2124C0.59436 14.7614 0.540405 14.6298 0.654297 14.4419C0.738281 14.3103 2.75342 12.7694 3.08325 12.5878C3.28723 12.4688 3.48511 12.5878 3.82092 13.0387L4.12683 13.4459L4.64868 13.0701ZM5.10437 15.964C4.75647 16.2208 4.08484 16.7407 3.97083 16.8472L3.9707 16.8475C3.9707 16.8724 8.28333 16.8973 13.5847 16.8973L23.2526 16.8973L23.2526 15.7072L5.45825 15.7072L5.10437 15.964ZM3.46118 13.8717C3.46118 13.8403 3.40723 13.7339 3.33521 13.6337C3.26929 13.5334 3.17932 13.452 3.14331 13.452C3.10132 13.4583 2.81348 13.6525 2.50159 13.8967C2.1897 14.1348 1.84192 14.3978 1.73987 14.473C1.5 14.6421 1.49402 14.6985 1.71594 14.9177L1.89587 15.0931L2.67554 14.5106C3.1073 14.1848 3.46118 13.8967 3.46118 13.8717ZM16.5055 0.773804C17.693 0.57959 19.2043 0.322754 19.8641 0.210083C21.2734 -0.0405273 21.3154 -0.0467529 21.7473 0.0847168C22.269 0.235107 22.5989 0.529541 23.0367 1.22485C23.4325 1.8512 24.9259 4.33179 25.2557 4.91431C25.3577 5.09595 25.4717 5.24634 25.5137 5.24634C25.5557 5.24634 26.4852 4.9895 27.5828 4.67627C27.7676 4.62329 27.9419 4.57324 28.1066 4.526C30.4966 3.83972 30.8207 3.7467 31.0786 3.83887C31.1365 3.85962 31.1912 3.88977 31.2651 3.92456C32.2368 4.38818 32.2488 5.9165 31.2772 6.33618C31.1572 6.39258 29.7958 6.76843 28.2484 7.18188C26.7072 7.59534 25.1777 8.01501 24.8539 8.11523L24.2662 8.3031L24.1823 8.16528C24.1403 8.09644 23.6904 7.3573 23.1926 6.5304C22.6888 5.70361 22.269 5.01453 22.2571 5.00195C22.245 4.9895 21.9152 5.03955 21.5314 5.11475C20.5477 5.30896 14.6163 6.37378 14.5144 6.37378C14.4963 6.37378 14.2925 6.84985 13.6508 8.44092C13.3209 9.24902 13.009 10.0132 12.9551 10.1322C12.9071 10.2512 12.6372 10.9089 12.3673 11.5854C12.0914 12.2682 11.8215 12.9135 11.7556 13.0261C11.2817 13.8718 9.98035 13.5648 9.89636 12.5876C9.87231 12.3308 9.94434 12.0928 10.4181 10.7899C11.8335 6.91248 12.8771 3.96838 12.8771 3.83069C12.8771 3.75549 12.8351 3.49866 12.7811 3.26685C12.6012 2.45886 12.8351 1.83862 13.4708 1.44409C13.8607 1.19971 13.8546 1.19971 16.5055 0.773804ZM21.2015 5.82886C20.7937 5.94788 20.7397 5.97925 20.7698 6.09192C20.7817 6.16089 20.9856 7.18811 21.2196 8.3783C21.4475 9.56848 21.6573 10.5582 21.6814 10.5833C21.7234 10.6271 22.9169 10.8651 25.9515 11.4476C26.3293 11.5228 27.0491 11.6669 27.5408 11.7734C28.1526 11.8987 28.5544 11.9487 28.7943 11.9363C29.1182 11.9111 29.1661 11.8861 29.4 11.6293C29.5979 11.41 29.6759 11.2598 29.7299 10.9904C29.8258 10.5519 29.7599 10.2638 29.472 9.87537C29.1361 9.41809 29.0162 9.37427 26.8632 8.97339C24.2123 8.47229 23.6965 8.37207 23.5825 8.3219C23.4746 8.27185 22.467 6.71838 22.0472 5.9541C21.8793 5.64722 21.8673 5.64722 21.2015 5.82886ZM7.96521 2.66565C8.22302 2.13318 8.81677 1.61963 9.39856 1.41919C9.48254 1.38782 9.78235 1.37524 10.0642 1.38159C10.5081 1.40039 10.64 1.43164 10.9758 1.60083C12.0554 2.15833 12.4993 3.61157 11.9414 4.75781C11.7256 5.20251 11.2997 5.65356 10.9039 5.854C10.61 6.01062 10.4961 6.02942 9.99829 6.02942C9.50049 6.02942 9.3866 6.01062 9.09863 5.86035C8.42102 5.50952 7.97717 4.95825 7.79724 4.22534C7.71924 3.89966 7.71326 3.76184 7.77332 3.37976C7.8092 3.12915 7.89319 2.80969 7.96521 2.66565Z" id="Fav" fill="#FFFFFF" fill-rule="evenodd" stroke="none" />
</svg>